<svg xmlns="http://www.w3.org/2000/svg" width="1200" height="900" viewBox="0 0 1200 900">
<rect width="100%" height="100%" fill="#111827"/>
<text x="20" y="30" fill="#e5e7eb" font-size="18" font-family="monospace">Expansion Loop Preview (generated)</text>
<polyline points="149.0,40.0 129.8,47.6 116.5,63.9 117.4,85.4 118.4,106.9 113.6,120.3 95.9,129.4 78.2,138.4 69.6,148.0 61.0,157.6 55.8,175.7 50.5,193.9 45.3,212.0 40.0,230.2 42.9,251.2 56.2,258.9 75.4,252.6 94.5,246.4 113.6,240.2 132.7,234.0 140.3,224.0 148.0,213.9 151.3,197.2 154.7,180.5 163.3,173.3 171.9,166.2 183.4,166.2 192.9,174.8 203.4,187.7 213.9,200.6 214.9,213.9 205.3,222.1 195.8,230.2 212.0,217.8 215.9,206.3 205.3,192.6 194.8,178.9 184.3,165.2 200.2,160.1 216.2,155.0 232.1,149.9 239.7,142.3 238.8,128.9 224.0,116.9 209.2,105.0 199.9,88.7 190.7,72.5 181.4,56.2 168.1,44.8 149.0,40.0" fill="none" stroke="#ff595e" stroke-width="2.5"/>
<circle cx="151.1" cy="162.1" r="4" fill="#ff595e"/>
<text x="159.1" y="154.1" fill="#ff595e" font-size="12" font-family="monospace">L1 (r66)</text>
<polyline points="736.7,750.1 755.8,759.0 774.9,767.9 794.1,776.9 800.7,786.4 798.4,797.9 796.0,809.3 805.2,826.2 814.4,843.1 823.7,860.0 831.8,842.1 839.9,824.2 848.1,806.2 856.2,788.3 838.0,782.1 819.9,775.9 800.7,786.4 787.4,770.2 770.5,763.5 753.6,756.8 736.7,750.1" fill="none" stroke="#1982c4" stroke-width="2.5"/>
<circle cx="799.2" cy="791.6" r="4" fill="#1982c4"/>
<text x="807.2" y="783.6" fill="#1982c4" font-size="12" font-family="monospace">L2 (r51)</text>
<rect x="840" y="827" width="340" height="60" fill="#1f2937" rx="8"/>
<text x="860" y="845" fill="#ff595e" font-size="12" font-family="monospace">L1: route=66, wp=50, perim=1727m, maxSeg=45.0m</text>
<text x="860" y="865" fill="#1982c4" font-size="12" font-family="monospace">L2: route=51, wp=21, perim=775m, maxSeg=45.7m</text>
</svg>