<svg xmlns="http://www.w3.org/2000/svg" width="1200" height="900" viewBox="0 0 1200 900">
<rect width="100%" height="100%" fill="#111827"/>
<text x="20" y="30" fill="#e5e7eb" font-size="18" font-family="monospace">Expansion Loop Preview (generated)</text>
<polyline points="287.5,40.1 289.1,42.5 286.7,44.4 284.6,43.9 282.4,43.4 279.3,43.6 276.1,43.8 273.0,44.0 276.1,43.8 279.3,43.6 282.4,43.4 284.6,43.9 286.7,44.4 289.3,42.7 292.0,43.8 294.7,44.9 297.4,46.0 300.1,47.1 302.8,48.2 305.7,49.7 308.6,51.3 311.5,52.9 308.6,51.3 305.7,49.7 302.8,48.2 299.9,47.2 297.0,46.2 294.2,45.2 291.3,44.2 289.4,42.2 287.5,40.1" fill="none" stroke="#ff595e" stroke-width="2.5"/>
<circle cx="291.8" cy="45.3" r="4" fill="#ff595e"/>
<text x="299.8" y="37.3" fill="#ff595e" font-size="12" font-family="monospace">L1 (r85)</text>
<polyline points="91.3,40.0 91.2,41.9 91.0,43.7 88.1,43.7 85.3,43.7 82.4,43.6 79.5,43.6 76.7,43.6 73.8,43.6 70.5,43.8 67.2,44.1 63.9,44.3 61.1,42.9 58.3,41.5 55.6,40.1 52.3,40.4 49.0,40.7 52.3,40.4 55.6,40.1 58.3,41.5 61.1,42.9 63.9,44.3 67.2,44.1 70.5,43.8 73.8,43.6 77.0,43.7 80.2,43.9 83.3,44.1 86.5,44.3 89.7,44.4 90.5,42.2 91.3,40.0" fill="none" stroke="#1982c4" stroke-width="2.5"/>
<circle cx="73.1" cy="42.8" r="4" fill="#1982c4"/>
<text x="81.1" y="34.8" fill="#1982c4" font-size="12" font-family="monospace">L2 (r86)</text>
<polyline points="53.9,661.7 51.9,662.6 49.9,663.4 47.7,665.6 45.5,667.8 45.2,670.3 45.9,672.6 46.6,674.8 47.3,677.0 46.5,678.7 45.6,680.4 45.3,682.8 44.9,685.2 43.0,686.7 41.2,688.1 40.0,690.2 40.0,692.5 40.0,694.8 40.0,692.5 40.0,690.2 41.2,688.1 43.0,686.7 44.9,685.2 45.3,682.8 45.6,680.4 46.5,678.7 47.3,677.0 46.6,674.8 45.9,672.6 45.2,670.3 45.5,667.8 47.7,665.6 49.9,663.4 51.9,662.6 53.9,661.7" fill="none" stroke="#8ac926" stroke-width="2.5"/>
<circle cx="45.7" cy="677.0" r="4" fill="#8ac926"/>
<text x="53.7" y="669.0" fill="#8ac926" font-size="12" font-family="monospace">L3 (r22)</text>
<polyline points="283.2,754.4 286.1,755.3 288.1,758.0 290.4,758.2 292.8,758.4 294.0,761.1 291.9,763.4 289.9,765.6 287.8,767.9 285.7,770.2 283.6,772.5 281.6,774.7 279.3,773.4 281.3,775.6 283.3,777.9 285.3,780.1 283.2,777.6 281.1,775.0 283.3,772.7 285.4,770.4 287.6,768.1 289.7,765.7 291.9,763.4 294.0,761.1 292.8,758.4 290.4,758.2 288.1,758.0 286.1,755.3 283.2,754.4" fill="none" stroke="#ffca3a" stroke-width="2.5"/>
<circle cx="286.9" cy="765.7" r="4" fill="#ffca3a"/>
<text x="294.9" y="757.7" fill="#ffca3a" font-size="12" font-family="monospace">L4 (r13)</text>
<polyline points="155.4,826.8 158.0,828.4 158.5,831.5 156.9,834.4 155.4,837.3 153.9,840.1 151.1,841.0 148.3,841.9 145.6,842.8 144.2,840.2 142.9,837.6 142.8,834.6 142.9,837.6 144.0,840.2 145.2,842.8 146.3,845.5 146.7,848.4 147.1,851.3 147.5,854.2 147.9,857.1 148.2,860.0 147.8,857.2 147.4,854.3 146.9,851.5 146.5,848.6 146.0,845.8 145.6,842.9 148.1,842.1 150.7,841.3 153.3,840.4 155.2,838.8 156.4,835.9 157.5,833.0 158.6,830.0 158.0,828.4 155.4,826.8" fill="none" stroke="#6a4c93" stroke-width="2.5"/>
<circle cx="150.1" cy="841.4" r="4" fill="#6a4c93"/>
<text x="158.1" y="833.4" fill="#6a4c93" font-size="12" font-family="monospace">L5 (r7)</text>
<polyline points="363.8,520.6 365.6,521.2 367.3,521.9 368.7,524.4 370.2,527.0 372.7,527.2 375.1,527.4 374.8,529.2 373.5,530.4 372.2,531.7 374.3,533.6 376.5,535.4 377.8,538.1 379.1,540.8 380.5,543.6 383.3,543.9 386.1,544.2 389.1,545.4 392.0,546.6 395.0,547.9 392.2,546.7 389.4,545.5 386.5,544.3 383.9,544.1 381.2,543.9 379.6,542.7 378.5,540.3 377.5,537.8 376.5,535.4 374.3,533.6 372.2,531.7 373.8,529.8 375.4,527.8 377.3,528.2 379.1,528.6 376.8,527.8 374.5,527.0 372.4,527.0 370.2,527.0 369.3,525.0 368.4,523.1 366.1,521.8 363.8,520.6" fill="none" stroke="#ff924c" stroke-width="2.5"/>
<circle cx="376.7" cy="533.5" r="4" fill="#ff924c"/>
<text x="384.7" y="525.5" fill="#ff924c" font-size="12" font-family="monospace">L6 (r28)</text>
<rect x="840" y="747" width="340" height="140" fill="#1f2937" rx="8"/>
<text x="860" y="765" fill="#ff595e" font-size="12" font-family="monospace">L1: route=85, wp=31, perim=1201m, maxSeg=44.7m</text>
<text x="860" y="785" fill="#1982c4" font-size="12" font-family="monospace">L2: route=86, wp=32, perim=1256m, maxSeg=44.8m</text>
<text x="860" y="805" fill="#8ac926" font-size="12" font-family="monospace">L3: route=22, wp=35, perim=1091m, maxSeg=42.4m</text>
<text x="860" y="825" fill="#ffca3a" font-size="12" font-family="monospace">L4: route=13, wp=29, perim=1129m, maxSeg=44.4m</text>
<text x="860" y="845" fill="#6a4c93" font-size="12" font-family="monospace">L5: route=7, wp=36, perim=1374m, maxSeg=43.8m</text>
<text x="860" y="865" fill="#ff924c" font-size="12" font-family="monospace">L6: route=28, wp=43, perim=1451m, maxSeg=43.3m</text>
</svg>